<svg xmlns="http://www.w3.org/2000/svg" width="190" height="32" viewBox="0 0 190 32">
    <g fill="none" fill-rule="evenodd">
        <path fill="#FF0049" d="M189.81 5.011h-18.054c-2.036 0-3.748 1.474-3.978 3.493-.308 2.694-2.392 4.3-4.982 4.382-2.752 0-4.992-2.26-5.01-5.011.018-2.752 2.258-5.01 5.01-5.01 1.794 0 3.367.957 4.253 2.382.069.11.224.12.308.022.52-.621 1.17-1.129 1.908-1.483.104-.05.139-.182.075-.277C167.927 1.393 165.524 0 162.796 0c-4.34 0-7.855 3.515-7.875 7.875.02 4.36 3.536 7.874 7.875 7.874 4.027-.119 7.353-2.776 7.827-6.917.064-.566.552-.957 1.133-.957h15.381v2.148c-.005 1.15-.342 2.86-1.791 2.863-1.45-.003-1.786-1.715-1.79-2.863v-.526c0-.105-.086-.19-.19-.19h-2.482c-.105 0-.19.085-.19.19v.526c-.005 1.148-.342 2.86-1.79 2.863-1.45-.003-1.786-1.714-1.79-2.863v-.526c0-.105-.086-.19-.191-.19h-2.483c-.103 0-.189.085-.189.19v.526c.01 2.797 1.533 5.723 4.652 5.726h.002c1.274 0 2.398-.514 3.22-1.431.822.917 1.946 1.43 3.219 1.431h.002c3.12-.003 4.643-2.929 4.653-5.726v-4.82c.002-.106-.084-.192-.19-.192"/>
        <path fill="#002B45" d="M151.946 24.077l-6.69-8.374 6.587-7.408c.11-.122.022-.316-.142-.316h-3.908c-.11 0-.215.047-.287.131l-5.299 6.102h-1.493V.62c0-.106-.086-.191-.19-.191h-3.2c-.104 0-.189.085-.189.191v23.576c0 .105.085.19.19.19h3.199c.104 0 .19-.085.19-.19v-6.728h1.477l5.348 6.773c.074.092.184.146.3.146h3.957c.16 0 .25-.185.15-.31M127.859 7.55c-1.664 0-3.68.507-5 2.387V8.169c0-.105-.086-.19-.191-.19h-3.199c-.105 0-.19.085-.19.19v16.026c0 .106.085.191.19.191h3.199c.105 0 .19-.085.19-.19v-8.904c0-2.81 1.935-4.334 4.247-4.334 2.415 0 3.82 1.542 3.82 4.3v8.937c0 .106.085.191.19.191h3.215c.106 0 .191-.085.191-.19v-10.12c0-3.837-2.758-6.526-6.662-6.526M116.475 7.978h-3.199c-.105 0-.19.086-.19.19v1.763c-1.148-1.439-2.792-2.38-5.138-2.38-4.59 0-8.205 3.613-8.205 8.631 0 5.018 3.614 8.631 8.205 8.631 1.341 0 2.454-.308 3.375-.842.119-.067.194-.193.194-.33v-2.905c0-.154-.174-.245-.3-.156-.78.547-1.746.86-2.842.86-3.083 0-4.95-2.38-4.95-5.258 0-2.877 1.867-5.258 4.95-5.258 2.435 0 4.71 1.809 4.71 4.358v8.913c0 .105.086.191.191.191h3.199c.105 0 .19-.086.19-.191V8.168c0-.104-.085-.19-.19-.19M90.2 7.55c-1.343 0-2.456.31-3.376.842-.12.069-.193.195-.193.332v2.905c0 .153.173.245.3.156.78-.547 1.744-.86 2.841-.86 3.082 0 4.95 2.38 4.95 5.257s-1.868 5.258-4.95 5.258c-2.435 0-4.71-1.81-4.71-4.358V.619c0-.105-.085-.19-.19-.19h-3.2c-.105 0-.19.085-.19.19v23.576c0 .106.085.191.19.191h3.2c.105 0 .19-.085.19-.19v-1.763c1.148 1.44 2.791 2.38 5.138 2.38 4.59 0 8.203-3.612 8.203-8.63 0-5.02-3.613-8.633-8.203-8.633M72.206 7.55c-1.664 0-3.68.507-5.001 2.387V8.169c0-.105-.085-.19-.19-.19h-3.198c-.106 0-.191.085-.191.19v16.026c0 .106.085.191.19.191h3.199c.105 0 .19-.085.19-.19v-8.904c0-2.81 1.936-4.334 4.247-4.334 2.416 0 3.82 1.542 3.82 4.3v8.937c0 .106.085.191.19.191h3.216c.105 0 .19-.085.19-.19v-10.12c0-3.837-2.756-6.526-6.662-6.526M53.713 7.55c-4.83 0-8.17 3.494-8.17 8.632 0 5.206 3.46 8.632 8.393 8.632 2.427 0 4.642-.573 6.613-2.199.077-.063.091-.174.034-.255l-1.566-2.246c-.062-.088-.186-.107-.271-.042-1.345 1.022-3.007 1.608-4.588 1.608-3.119 0-5.05-2.354-5.077-5.313-.026-2.825 1.35-5.631 4.563-5.631 2.278 0 3.769 1.49 4.162 4.041H50.97c-.091 0-.17.067-.186.157-.145.782-.157 1.625-.024 2.41.016.09.095.157.188.157h10.285c.097 0 .179-.074.189-.17.036-.367.05-.766.05-1.165 0-5.122-3.185-8.616-7.76-8.616M35.972 7.55c-2.347 0-3.991.943-5.139 2.381V8.17c0-.105-.085-.19-.19-.19h-3.198c-.105 0-.191.085-.191.19v23.307c0 .105.086.19.191.19h3.198c.105 0 .19-.085.19-.19V15.283c0-2.55 2.276-4.358 4.71-4.358 3.084 0 4.95 2.38 4.95 5.257s-1.866 5.258-4.95 5.258c-1.095 0-2.061-.313-2.841-.861-.126-.088-.299.003-.299.157v2.905c0 .137.074.263.192.33.922.534 2.034.843 3.377.843 4.59 0 8.204-3.613 8.204-8.632 0-5.018-3.615-8.632-8.204-8.632M13.61 0c-.11-.007-.204.082-.204.191v3.353c0 .098.073.177.17.188 4.347.463 7.459 3.859 7.459 8.656 0 5.17-3.612 8.712-8.49 8.712-4.877 0-8.489-3.543-8.489-8.712 0-4.797 3.11-8.193 7.459-8.656.096-.01.17-.09.17-.188V.19c0-.11-.094-.198-.204-.19C4.69.482 0 5.567 0 12.387c0 7.172 5.186 12.425 12.545 12.425 7.36 0 12.545-5.253 12.545-12.425C25.09 5.568 20.4.483 13.61 0"/>
    </g>
</svg>
